<svg xmlns="http://www.w3.org/2000/svg" xmlns:xlink="http://www.w3.org/1999/xlink" xmlns:sketch="http://www.bohemiancoding.com/sketch/ns" viewBox="0 0 160 125" version="1.1" x="0px" y="0px"><title>Chat Box</title><desc>Created with Sketch.</desc><g stroke="none" stroke-width="1" fill="none" fill-rule="evenodd" sketch:type="MSPage"><g sketch:type="MSArtboardGroup" fill="#000000"><path d="M34.0614357,79.2353225 C40.1004899,82.8940633 47.1852986,85 54.762124,85 L114.759615,85 C136.851951,85 154.76087,67.09139 154.76087,45 C154.76087,22.9037527 136.851698,5 114.759615,5 L54.762124,5 C32.669788,5 14.7608696,22.90861 14.7608696,45 C14.7608696,52.6917458 16.9310123,59.8754664 20.6923073,65.972804 C17.3256636,67.5822258 15,71.019519 15,75 C15,80.5228475 19.4771525,85 25,85 C29.0089401,85 32.4668973,82.6409621 34.0614357,79.2353225 Z M84.7636364,55 C90.2864839,55 94.7636364,50.5228475 94.7636364,45 C94.7636364,39.4771525 90.2864839,35 84.7636364,35 C79.2407889,35 74.7636364,39.4771525 74.7636364,45 C74.7636364,50.5228475 79.2407889,55 84.7636364,55 Z M114.76087,55 C120.283717,55 124.76087,50.5228475 124.76087,45 C124.76087,39.4771525 120.283717,35 114.76087,35 C109.238022,35 104.76087,39.4771525 104.76087,45 C104.76087,50.5228475 109.238022,55 114.76087,55 Z M54.7608696,55 C60.2837171,55 64.7608696,50.5228475 64.7608696,45 C64.7608696,39.4771525 60.2837171,35 54.7608696,35 C49.2380221,35 44.7608696,39.4771525 44.7608696,45 C44.7608696,50.5228475 49.2380221,55 54.7608696,55 Z M10,95 C12.7614237,95 15,92.7614237 15,90 C15,87.2385763 12.7614237,85 10,85 C7.23857625,85 5,87.2385763 5,90 C5,92.7614237 7.23857625,95 10,95 Z" sketch:type="MSShapeGroup"/></g></g><text x="0" y="115" fill="#000000" font-size="5px" font-weight="bold" font-family="'Helvetica Neue', Helvetica, Arial-Unicode, Arial, Sans-serif">Created by Chris</text><text x="0" y="120" fill="#000000" font-size="5px" font-weight="bold" font-family="'Helvetica Neue', Helvetica, Arial-Unicode, Arial, Sans-serif">from the Noun Project</text></svg>